<svg width="42" height="44" viewBox="0 0 42 44" fill="none" xmlns="http://www.w3.org/2000/svg">
<path d="M8.08333 19.833L20 0.333008L31.9167 19.833H8.08333ZM31.9167 43.6663C29.2083 43.6663 26.9066 42.7188 25.0115 40.8237C23.1164 38.9286 22.1681 36.6261 22.1667 33.9163C22.1652 31.2066 23.1135 28.9048 25.0115 27.0112C26.9095 25.1175 29.2112 24.1692 31.9167 24.1663C34.6221 24.1635 36.9246 25.1117 38.824 27.0112C40.7234 28.9106 41.671 31.2123 41.6667 33.9163C41.6623 36.6203 40.7148 38.9228 38.824 40.8237C36.9332 42.7246 34.6308 43.6721 31.9167 43.6663ZM0.5 42.583V25.2497H17.8333V42.583H0.5ZM31.9167 39.333C33.4333 39.333 34.7153 38.8094 35.7625 37.7622C36.8097 36.715 37.3333 35.433 37.3333 33.9163C37.3333 32.3997 36.8097 31.1177 35.7625 30.0705C34.7153 29.0233 33.4333 28.4997 31.9167 28.4997C30.4 28.4997 29.1181 29.0233 28.0708 30.0705C27.0236 31.1177 26.5 32.3997 26.5 33.9163C26.5 35.433 27.0236 36.715 28.0708 37.7622C29.1181 38.8094 30.4 39.333 31.9167 39.333ZM4.83333 38.2497H13.5V29.583H4.83333V38.2497ZM15.775 15.4997H24.225L20 8.67467L15.775 15.4997Z" fill="white"/>
</svg>
