<svg width="28" height="26" viewBox="0 0 28 26" fill="none" xmlns="http://www.w3.org/2000/svg">
<path fill-rule="evenodd" clip-rule="evenodd" d="M26.7282 0.814755C27.1031 1.18981 27.3138 1.69843 27.3138 2.22876C27.3138 2.75908 27.1031 3.2677 26.7282 3.64275L11.7375 18.6334C11.5394 18.8316 11.3042 18.9888 11.0454 19.096C10.7865 19.2032 10.5091 19.2584 10.2289 19.2584C9.94867 19.2584 9.67122 19.2032 9.41236 19.096C9.1535 18.9888 8.9183 18.8316 8.7202 18.6334L1.2722 11.1868C1.08118 11.0023 0.928813 10.7816 0.823995 10.5376C0.719177 10.2936 0.664004 10.0311 0.661697 9.76556C0.659389 9.5 0.709993 9.23664 0.810554 8.99085C0.911116 8.74505 1.05962 8.52175 1.24741 8.33396C1.43519 8.14618 1.6585 7.99767 1.90429 7.89711C2.15008 7.79655 2.41344 7.74595 2.679 7.74825C2.94456 7.75056 3.207 7.80573 3.45101 7.91055C3.69501 8.01537 3.9157 8.16773 4.1002 8.35875L10.2282 14.4868L23.8989 0.814755C24.0846 0.628902 24.3051 0.481469 24.5479 0.380879C24.7906 0.28029 25.0508 0.228516 25.3135 0.228516C25.5763 0.228516 25.8365 0.28029 26.0792 0.380879C26.3219 0.481469 26.5425 0.628902 26.7282 0.814755Z" fill="white"/>
</svg>
