<svg width="25" height="25" viewBox="0 0 25 25" fill="none" xmlns="http://www.w3.org/2000/svg">
<path d="M14.5213 14.6213C15.084 14.0587 15.4 13.2956 15.4 12.5C15.4 11.7044 15.084 10.9413 14.5213 10.3787C13.9587 9.81607 13.1957 9.5 12.4 9.5C11.6044 9.5 10.8413 9.81607 10.2787 10.3787C9.71609 10.9413 9.40002 11.7044 9.40002 12.5C9.40002 13.2956 9.71609 14.0587 10.2787 14.6213C10.8413 15.1839 11.6044 15.5 12.4 15.5C13.1957 15.5 13.9587 15.1839 14.5213 14.6213Z" stroke="white" stroke-width="2" stroke-linecap="round" stroke-linejoin="round"/>
<path d="M2.85803 12.5C4.13203 8.443 7.92303 5.5 12.4 5.5C16.878 5.5 20.668 8.443 21.942 12.5C20.668 16.557 16.878 19.5 12.4 19.5C7.92303 19.5 4.13203 16.557 2.85803 12.5Z" stroke="white" stroke-width="2" stroke-linecap="round" stroke-linejoin="round"/>
</svg>
