<svg width="52" height="52" viewBox="0 0 52 52" fill="none" xmlns="http://www.w3.org/2000/svg">
<path d="M9.99385 2.84375H4.8751C3.00635 2.84375 1.38135 4.3875 1.38135 6.3375V11.4562C1.38135 13.325 2.9251 14.95 4.8751 14.95H9.99385C11.8626 14.95 13.4876 13.4062 13.4876 11.4562V6.25625C13.4063 4.3875 11.8626 2.84375 9.99385 2.84375ZM9.7501 11.2125H5.11885V6.5H9.7501V11.2125Z" fill="white"/>
<path d="M20.8814 10.7248H48.7502C49.7252 10.7248 50.6189 9.9123 50.6189 8.85605C50.6189 7.7998 49.8064 6.9873 48.7502 6.9873H20.8814C19.9064 6.9873 19.0127 7.7998 19.0127 8.85605C19.0127 9.9123 19.9064 10.7248 20.8814 10.7248Z" fill="white"/>
<path d="M9.99385 19.5H4.8751C3.00635 19.5 1.38135 21.0437 1.38135 22.9937V28.1125C1.38135 29.9812 2.9251 31.6062 4.8751 31.6062H9.99385C11.8626 31.6062 13.4876 30.0625 13.4876 28.1125V22.9937C13.4063 21.0437 11.8626 19.5 9.99385 19.5ZM9.7501 27.8687H5.11885V23.1562H9.7501V27.8687Z" fill="white"/>
<path d="M48.7502 23.7246H20.8814C19.9064 23.7246 19.0127 24.5371 19.0127 25.5934C19.0127 26.6496 19.8252 27.3809 20.8814 27.3809H48.7502C49.7252 27.3809 50.6189 26.5684 50.6189 25.5934C50.6189 24.6184 49.7252 23.7246 48.7502 23.7246Z" fill="white"/>
<path d="M9.99385 37.1309H4.8751C3.00635 37.1309 1.38135 38.6746 1.38135 40.6246V45.7434C1.38135 47.6121 2.9251 49.2371 4.8751 49.2371H9.99385C11.8626 49.2371 13.4876 47.6934 13.4876 45.7434V40.6246C13.4063 38.6746 11.8626 37.1309 9.99385 37.1309ZM9.7501 45.4996H5.11885V40.7871H9.7501V45.4996Z" fill="white"/>
<path d="M48.7502 41.2754H20.8814C19.9064 41.2754 19.0127 42.0879 19.0127 43.1441C19.0127 44.2004 19.8252 45.0129 20.8814 45.0129H48.7502C49.7252 45.0129 50.6189 44.2004 50.6189 43.1441C50.6189 42.0879 49.7252 41.2754 48.7502 41.2754Z" fill="white"/>
</svg>
