<svg width="51" height="51" viewBox="0 0 51 51" fill="none" xmlns="http://www.w3.org/2000/svg">
<path d="M22.5556 0.333008H28.1112V50.333H22.5556V0.333008ZM5.88893 14.2219C5.88893 13.4852 6.18159 12.7786 6.70252 12.2577C7.22346 11.7368 7.93 11.4441 8.66671 11.4441H17V5.88856H8.66671C6.45657 5.88856 4.33695 6.76654 2.77415 8.32934C1.21135 9.89214 0.333374 12.0118 0.333374 14.2219V36.4441C0.333374 38.6543 1.21135 40.7739 2.77415 42.3367C4.33695 43.8995 6.45657 44.7775 8.66671 44.7775H17V39.2219H8.66671C7.93 39.2219 7.22346 38.9292 6.70252 38.4083C6.18159 37.8874 5.88893 37.1808 5.88893 36.4441V14.2219ZM44.7778 14.2219C44.7778 13.4852 44.4852 12.7786 43.9642 12.2577C43.4433 11.7368 42.7368 11.4441 42 11.4441H33.6667V5.88856H42C44.2102 5.88856 46.3298 6.76654 47.8926 8.32934C49.4554 9.89214 50.3334 12.0118 50.3334 14.2219V36.4441C50.3334 38.6543 49.4554 40.7739 47.8926 42.3367C46.3298 43.8995 44.2102 44.7775 42 44.7775H33.6667V39.2219H42C42.7368 39.2219 43.4433 38.9292 43.9642 38.4083C44.4852 37.8874 44.7778 37.1808 44.7778 36.4441V14.2219Z" fill="#3366FF"/>
</svg>
