<svg width="22" height="22" viewBox="0 0 22 22" fill="none" xmlns="http://www.w3.org/2000/svg">
<path fill-rule="evenodd" clip-rule="evenodd" d="M9.62548 1.8335C8.38302 1.8336 7.1586 2.13083 6.05438 2.70038C4.95015 3.26993 3.99814 4.09529 3.27778 5.1076C2.55741 6.11991 2.08957 7.28981 1.91329 8.5197C1.73702 9.74959 1.85741 11.0038 2.26444 12.1777C2.67147 13.3516 3.35332 14.4111 4.25311 15.2679C5.1529 16.1247 6.24454 16.7539 7.43695 17.103C8.62936 17.4521 9.88796 17.5109 11.1077 17.2747C12.3275 17.0384 13.4731 16.5139 14.449 15.7448L17.7966 19.0925C17.9695 19.2595 18.2011 19.3519 18.4414 19.3498C18.6818 19.3477 18.9117 19.2513 19.0816 19.0813C19.2516 18.9114 19.348 18.6815 19.3501 18.4411C19.3522 18.2008 19.2598 17.9692 19.0928 17.7963L15.7451 14.4487C16.6508 13.2997 17.2147 11.919 17.3723 10.4646C17.5299 9.01013 17.2749 7.54068 16.6363 6.22442C15.9978 4.90815 15.0016 3.79824 13.7618 3.02171C12.5219 2.24518 11.0884 1.8334 9.62548 1.8335ZM3.66714 9.62516C3.66714 8.04491 4.29489 6.52939 5.4123 5.41198C6.5297 4.29458 8.04523 3.66683 9.62548 3.66683C11.2057 3.66683 12.7212 4.29458 13.8387 5.41198C14.9561 6.52939 15.5838 8.04491 15.5838 9.62516C15.5838 11.2054 14.9561 12.7209 13.8387 13.8383C12.7212 14.9557 11.2057 15.5835 9.62548 15.5835C8.04523 15.5835 6.5297 14.9557 5.4123 13.8383C4.29489 12.7209 3.66714 11.2054 3.66714 9.62516Z" fill="#7A7A7A"/>
</svg>
