<svg width="44" height="50" viewBox="0 0 44 50" fill="none" xmlns="http://www.w3.org/2000/svg">
<path d="M21.9998 21.5059C28.0123 21.5059 32.8873 16.7934 32.8873 10.9434C32.8873 5.09336 28.0123 0.380859 21.9998 0.380859C15.9873 0.380859 11.1123 5.09336 11.1123 10.9434C11.1123 16.7934 15.9873 21.5059 21.9998 21.5059ZM21.9998 4.11836C25.9811 4.11836 29.2311 7.20586 29.2311 11.0246C29.2311 14.8434 25.9811 17.9309 21.9998 17.9309C18.0186 17.9309 14.7686 14.8434 14.7686 11.0246C14.7686 7.20586 18.0186 4.11836 21.9998 4.11836Z" fill="white"/>
<path d="M27.2811 25.1621H16.7186C8.0248 25.1621 0.956055 32.3121 0.956055 41.0059V47.7496C0.956055 48.7246 1.76855 49.6184 2.8248 49.6184C3.88105 49.6184 4.69355 48.8059 4.69355 47.7496V41.0059C4.69355 34.3434 10.1373 28.8184 16.8811 28.8184H27.3623C34.0248 28.8184 39.5498 34.2621 39.5498 41.0059V47.7496C39.5498 48.7246 40.3623 49.6184 41.4186 49.6184C42.4748 49.6184 43.2873 48.8059 43.2873 47.7496V41.0059C43.0436 32.3121 35.9748 25.1621 27.2811 25.1621Z" fill="white"/>
</svg>
