<svg width="52" height="42" viewBox="0 0 52 42" fill="none" xmlns="http://www.w3.org/2000/svg">
<path d="M7.0902 3.666C5.1324 3.666 3.5464 5.21819 3.5464 7.13439V34.866C3.5464 36.7822 5.1324 38.3344 7.0902 38.3344H44.9098C46.8676 38.3344 48.4536 36.7822 48.4536 34.866V7.13439C48.4536 5.21819 46.8676 3.666 44.9098 3.666H7.0902ZM44.9098 0.200195C48.8254 0.200195 52 3.30459 52 7.13439V34.866C52 38.6958 48.8254 41.8002 44.9098 41.8002H7.0902C3.1746 41.8002 0 38.6958 0 34.866V7.13439C0 3.30459 3.1746 0.200195 7.0902 0.200195H44.9098ZM21.2342 29.146H10.4C10.1697 29.1432 9.94102 29.1859 9.72719 29.2716C9.51336 29.3573 9.31852 29.4844 9.15383 29.6454C8.98913 29.8065 8.85781 29.9985 8.76738 30.2103C8.67695 30.4222 8.62918 30.6498 8.6268 30.8802C8.6268 31.837 9.4198 32.6144 10.4 32.6144H21.2342C21.4643 32.6168 21.6927 32.5738 21.9062 32.488C22.1197 32.4021 22.3143 32.2751 22.4787 32.114C22.6431 31.953 22.7742 31.7611 22.8645 31.5494C22.9547 31.3377 23.0024 31.1103 23.0048 30.8802C23.0024 30.6501 22.9547 30.4227 22.8645 30.211C22.7742 29.9992 22.6431 29.8074 22.4787 29.6464C22.3143 29.4853 22.1197 29.3583 21.9062 29.2724C21.6927 29.1865 21.4643 29.1436 21.2342 29.146ZM35.75 8.866C31.7876 8.866 28.561 11.9626 28.561 15.8002C28.561 17.81 29.445 19.617 30.8594 20.8832C28.1814 22.464 26.3952 25.311 26.3952 28.5636C26.3952 29.4918 26.5408 30.4044 26.8242 31.2754C27.1232 32.1854 28.1216 32.6898 29.0524 32.3986C29.2721 32.3328 29.4764 32.2239 29.6536 32.0782C29.8307 31.9326 29.977 31.7531 30.084 31.5502C30.191 31.3474 30.2565 31.1253 30.2767 30.8968C30.2969 30.6684 30.2713 30.4383 30.2016 30.2198C30.0259 29.6854 29.9381 29.1261 29.9416 28.5636C29.9416 25.5086 32.5338 23.0178 35.75 23.0178C38.9662 23.0178 41.561 25.5086 41.561 28.5636C41.561 29.0143 41.5064 29.4528 41.3972 29.8792C41.3424 30.102 41.3324 30.3336 41.3679 30.5603C41.4034 30.787 41.4835 31.0045 41.6038 31.1999C41.724 31.3954 41.8819 31.565 42.0683 31.699C42.2547 31.8329 42.4658 31.9284 42.6894 31.98C43.1416 32.0934 43.6202 32.0245 44.022 31.7881C44.4238 31.5517 44.7165 31.1668 44.837 30.7164C45.0155 30.0127 45.1048 29.2951 45.1048 28.5636C45.1048 25.311 43.3186 22.464 40.6406 20.878C42.055 19.617 42.939 17.81 42.939 15.8002C42.939 11.9626 39.715 8.866 35.75 8.866ZM21.2342 20.046H10.4C10.1697 20.0432 9.94102 20.0859 9.72719 20.1716C9.51336 20.2573 9.31852 20.3844 9.15383 20.5454C8.98913 20.7065 8.85781 20.8985 8.76738 21.1103C8.67695 21.3222 8.62918 21.5498 8.6268 21.7802C8.6268 22.737 9.4198 23.5144 10.4 23.5144H21.2342C21.4643 23.5168 21.6927 23.4738 21.9062 23.388C22.1197 23.3021 22.3143 23.1751 22.4787 23.014C22.6431 22.853 22.7742 22.6611 22.8645 22.4494C22.9547 22.2377 23.0024 22.0103 23.0048 21.7802C23.0024 21.5501 22.9547 21.3227 22.8645 21.111C22.7742 20.8993 22.6431 20.7074 22.4787 20.5464C22.3143 20.3853 22.1197 20.2583 21.9062 20.1724C21.6927 20.0865 21.4643 20.0436 21.2342 20.046ZM35.75 12.3344C37.7702 12.3344 39.3952 13.8944 39.3952 15.8002C39.3952 17.7086 37.7702 19.266 35.75 19.266C33.7298 19.266 32.1048 17.706 32.1048 15.8002C32.1048 13.8918 33.7298 12.3344 35.75 12.3344ZM21.2342 10.946H10.4C10.1697 10.9432 9.94102 10.9859 9.72719 11.0716C9.51336 11.1573 9.31852 11.2844 9.15383 11.4454C8.98913 11.6065 8.85781 11.7985 8.76738 12.0103C8.67695 12.2222 8.62918 12.4498 8.6268 12.6802C8.6268 13.637 9.4198 14.4144 10.4 14.4144H21.2342C21.4643 14.4168 21.6927 14.3738 21.9062 14.288C22.1197 14.2021 22.3143 14.0751 22.4787 13.914C22.6431 13.753 22.7742 13.5611 22.8645 13.3494C22.9547 13.1377 23.0024 12.9103 23.0048 12.6802C23.0024 12.4501 22.9547 12.2227 22.8645 12.011C22.7742 11.7992 22.6431 11.6074 22.4787 11.4464C22.3143 11.2853 22.1197 11.1583 21.9062 11.0724C21.6927 10.9865 21.4643 10.9436 21.2342 10.946Z" fill="white"/>
</svg>
